<svg width="24" height="24" viewBox="0 0 24 24" fill="none" xmlns="http://www.w3.org/2000/svg">
<g clip-path="url(#clip0_51:5700)">
<path d="M10.7925 2.43006H13.2037C15.8493 2.43006 18.3865 3.48099 20.2571 5.35167C22.1278 7.22234 23.1787 9.75952 23.1787 12.4051V12.4051C23.1787 12.604 23.0997 12.7947 22.9591 12.9354C22.8184 13.076 22.6277 13.1551 22.4287 13.1551H1.56C1.36109 13.1551 1.17032 13.076 1.02967 12.9354C0.889015 12.7947 0.809998 12.604 0.809998 12.4051C0.809997 11.0945 1.06826 9.79677 1.57002 8.58606C2.07178 7.37535 2.8072 6.27538 3.73426 5.34901C4.66132 4.42265 5.76184 3.68805 6.97293 3.1872C8.18402 2.68636 9.48193 2.42907 10.7925 2.43006V2.43006Z" stroke="white" stroke-width="2" stroke-linecap="round" stroke-linejoin="round"/>
<path d="M22.0987 13.1437H1.90125V15.8174H22.0987V13.1437Z" stroke="white" stroke-width="2" stroke-linecap="round" stroke-linejoin="round"/>
<path d="M1.54126 15.8175H22.4588C22.5533 15.8175 22.6469 15.8361 22.7343 15.8723C22.8216 15.9085 22.901 15.9615 22.9679 16.0284C23.0347 16.0952 23.0878 16.1746 23.124 16.262C23.1601 16.3493 23.1788 16.443 23.1788 16.5375V16.5375C23.1788 17.8716 22.6491 19.151 21.7061 20.0947C20.7631 21.0384 19.4841 21.569 18.15 21.57H5.85376C4.51906 21.57 3.23902 21.0398 2.29524 20.096C1.35147 19.1522 0.821259 17.8722 0.821259 16.5375V16.5375C0.821259 16.443 0.839882 16.3493 0.876065 16.262C0.912249 16.1746 0.965284 16.0952 1.03214 16.0284C1.099 15.9615 1.17837 15.9085 1.26573 15.8723C1.35308 15.8361 1.44671 15.8175 1.54126 15.8175V15.8175Z" stroke="white" stroke-width="2" stroke-linecap="round" stroke-linejoin="round"/>
<path d="M13.7513 18.225L10.41 15.8175H20.16L16.8225 18.225C16.3754 18.5475 15.8381 18.721 15.2869 18.721C14.7356 18.721 14.1983 18.5475 13.7513 18.225V18.225Z" stroke="white" stroke-width="2" stroke-linecap="round" stroke-linejoin="round"/>
</g>
<defs>
<clipPath id="clip0_51:5700">
<rect width="24" height="24" fill="white"/>
</clipPath>
</defs>
</svg>
