<svg width="24" height="24" viewBox="0 0 24 24" fill="none" xmlns="http://www.w3.org/2000/svg">
<path fill-rule="evenodd" clip-rule="evenodd" d="M11.7875 3.49168C7.20584 3.49168 3.49168 7.20584 3.49168 11.7875C3.49168 16.3691 7.20584 20.0833 11.7875 20.0833C16.3691 20.0833 20.0833 16.3691 20.0833 11.7875C20.0833 7.20584 16.3691 3.49168 11.7875 3.49168ZM2 11.7875C2 6.382 6.382 2 11.7875 2C17.1929 2 21.575 6.382 21.575 11.7875C21.575 17.1929 17.1929 21.575 11.7875 21.575C6.382 21.575 2 17.1929 2 11.7875Z" fill="white" stroke="white" stroke-width="0.2" stroke-linecap="round" stroke-linejoin="round"/>
<path fill-rule="evenodd" clip-rule="evenodd" d="M7.98423 7.86521C8.26086 7.57707 8.25152 7.11924 7.96338 6.84261L6.31944 5.2644C6.0313 4.98777 5.57346 4.99711 5.29684 5.28525C5.02021 5.5734 5.02955 6.03123 5.3177 6.30786L6.96163 7.88607C7.24977 8.1627 7.70761 8.15336 7.98423 7.86521Z" fill="white"/>
<path fill-rule="evenodd" clip-rule="evenodd" d="M15.6583 7.86521C15.3816 7.57707 15.391 7.11924 15.6791 6.84261L17.3231 5.2644C17.6112 4.98777 18.069 4.99711 18.3457 5.28525C18.6223 5.5734 18.6129 6.03123 18.3248 6.30786L16.6809 7.88607C16.3927 8.1627 15.9349 8.15336 15.6583 7.86521Z" fill="white"/>
<path fill-rule="evenodd" clip-rule="evenodd" d="M2.42224 11.7883C2.42271 12.1878 2.74689 12.5112 3.14633 12.5107L5.4252 12.5081C5.82464 12.5076 6.14806 12.1834 6.1476 11.784C6.14713 11.3845 5.82295 11.0611 5.42351 11.0616L3.14464 11.0642C2.7452 11.0647 2.42178 11.3889 2.42224 11.7883Z" fill="white"/>
<path fill-rule="evenodd" clip-rule="evenodd" d="M17.4272 11.7913C17.4276 12.1907 17.7518 12.5142 18.1512 12.5137L20.4301 12.511C20.8296 12.5106 21.153 12.1864 21.1525 11.787C21.1521 11.3875 20.8279 11.0641 20.4284 11.0646L18.1496 11.0672C17.7501 11.0677 17.4267 11.3919 17.4272 11.7913Z" fill="white"/>
<path fill-rule="evenodd" clip-rule="evenodd" d="M11.8316 6.18873C12.231 6.18058 12.5481 5.85024 12.5399 5.45089L12.4935 3.17248C12.4853 2.77313 12.155 2.456 11.7556 2.46414C11.3563 2.47229 11.0392 2.80263 11.0473 3.20198L11.0938 5.48038C11.1019 5.87974 11.4323 6.19687 11.8316 6.18873Z" fill="white"/>
<path fill-rule="evenodd" clip-rule="evenodd" d="M11.7872 7.50003C11.3878 7.50003 11.064 7.82384 11.064 8.22327L11.064 10.1435C11.064 10.5429 11.3878 10.8667 11.7872 10.8667C12.1867 10.8667 12.5105 10.5429 12.5105 10.1435V8.22327C12.5105 7.82384 12.1867 7.50003 11.7872 7.50003Z" fill="white"/>
<path fill-rule="evenodd" clip-rule="evenodd" d="M11.7872 12.4825C11.3878 12.4825 11.064 12.8063 11.064 13.2057V14.0935C11.064 14.4929 11.3878 14.8167 11.7872 14.8167C12.1867 14.8167 12.5105 14.4929 12.5105 14.0935V13.2057C12.5105 12.8063 12.1867 12.4825 11.7872 12.4825Z" fill="white"/>
<path fill-rule="evenodd" clip-rule="evenodd" d="M7.98423 7.86521C8.26086 7.57707 8.25152 7.11924 7.96338 6.84261L6.31944 5.2644C6.0313 4.98777 5.57346 4.99711 5.29684 5.28525C5.02021 5.5734 5.02955 6.03123 5.3177 6.30786L6.96163 7.88607C7.24977 8.1627 7.70761 8.15336 7.98423 7.86521Z" stroke="white" stroke-width="0.2" stroke-linecap="round" stroke-linejoin="round"/>
<path fill-rule="evenodd" clip-rule="evenodd" d="M15.6583 7.86521C15.3816 7.57707 15.391 7.11924 15.6791 6.84261L17.3231 5.2644C17.6112 4.98777 18.069 4.99711 18.3457 5.28525C18.6223 5.5734 18.6129 6.03123 18.3248 6.30786L16.6809 7.88607C16.3927 8.1627 15.9349 8.15336 15.6583 7.86521Z" stroke="white" stroke-width="0.2" stroke-linecap="round" stroke-linejoin="round"/>
<path fill-rule="evenodd" clip-rule="evenodd" d="M2.42224 11.7883C2.42271 12.1878 2.74689 12.5112 3.14633 12.5107L5.4252 12.5081C5.82464 12.5076 6.14806 12.1834 6.1476 11.784C6.14713 11.3845 5.82295 11.0611 5.42351 11.0616L3.14464 11.0642C2.7452 11.0647 2.42178 11.3889 2.42224 11.7883Z" stroke="white" stroke-width="0.2" stroke-linecap="round" stroke-linejoin="round"/>
<path fill-rule="evenodd" clip-rule="evenodd" d="M17.4272 11.7913C17.4276 12.1907 17.7518 12.5142 18.1512 12.5137L20.4301 12.511C20.8296 12.5106 21.153 12.1864 21.1525 11.787C21.1521 11.3875 20.8279 11.0641 20.4284 11.0646L18.1496 11.0672C17.7501 11.0677 17.4267 11.3919 17.4272 11.7913Z" stroke="white" stroke-width="0.2" stroke-linecap="round" stroke-linejoin="round"/>
<path fill-rule="evenodd" clip-rule="evenodd" d="M11.8316 6.18873C12.231 6.18058 12.5481 5.85024 12.5399 5.45089L12.4935 3.17248C12.4853 2.77313 12.155 2.456 11.7556 2.46414C11.3563 2.47229 11.0392 2.80263 11.0473 3.20198L11.0938 5.48038C11.1019 5.87974 11.4323 6.19687 11.8316 6.18873Z" stroke="white" stroke-width="0.2" stroke-linecap="round" stroke-linejoin="round"/>
<path fill-rule="evenodd" clip-rule="evenodd" d="M11.7872 7.50003C11.3878 7.50003 11.064 7.82384 11.064 8.22327L11.064 10.1435C11.064 10.5429 11.3878 10.8667 11.7872 10.8667C12.1867 10.8667 12.5105 10.5429 12.5105 10.1435V8.22327C12.5105 7.82384 12.1867 7.50003 11.7872 7.50003Z" stroke="white" stroke-width="0.2" stroke-linecap="round" stroke-linejoin="round"/>
<path fill-rule="evenodd" clip-rule="evenodd" d="M11.7872 12.4825C11.3878 12.4825 11.064 12.8063 11.064 13.2057V14.0935C11.064 14.4929 11.3878 14.8167 11.7872 14.8167C12.1867 14.8167 12.5105 14.4929 12.5105 14.0935V13.2057C12.5105 12.8063 12.1867 12.4825 11.7872 12.4825Z" stroke="white" stroke-width="0.2" stroke-linecap="round" stroke-linejoin="round"/>
<path d="M11.7872 13.0205C12.4681 13.0205 13.0202 12.4685 13.0202 11.7875C13.0202 11.1066 12.4681 10.5546 11.7872 10.5546C11.1063 10.5546 10.5543 11.1066 10.5543 11.7875C10.5543 12.4685 11.1063 13.0205 11.7872 13.0205Z" stroke="white" stroke-width="1.25" stroke-linecap="round" stroke-linejoin="round"/>
</svg>
