<svg width="24" height="24" viewBox="0 0 24 24" fill="none" xmlns="http://www.w3.org/2000/svg">
<path d="M21 4.99988C21 6.65673 16.9706 7.99988 12 7.99988C7.02944 7.99988 3 6.65673 3 4.99988M21 4.99988C21 3.34302 16.9706 1.99988 12 1.99988C7.02944 1.99988 3 3.34302 3 4.99988M21 4.99988V18.9999C21 20.6599 17 21.9999 12 21.9999C7 21.9999 3 20.6599 3 18.9999V4.99988M21 11.9999C21 13.6599 17 14.9999 12 14.9999C7 14.9999 3 13.6599 3 11.9999" stroke="white" stroke-width="1.8" stroke-linecap="round" stroke-linejoin="round"/>
</svg>
