<svg width="24" height="24" viewBox="0 0 24 24" fill="none" xmlns="http://www.w3.org/2000/svg">
<path d="M5.29303 5.29302C5.48056 5.10555 5.73487 5.00023 6.00003 5.00023C6.26519 5.00023 6.5195 5.10555 6.70703 5.29302L12 10.586L17.293 5.29302C17.3853 5.19751 17.4956 5.12133 17.6176 5.06892C17.7396 5.01651 17.8709 4.98892 18.0036 4.98777C18.1364 4.98662 18.2681 5.01192 18.391 5.0622C18.5139 5.11248 18.6255 5.18673 18.7194 5.28062C18.8133 5.37452 18.8876 5.48617 18.9379 5.60907C18.9881 5.73196 19.0134 5.86364 19.0123 5.99642C19.0111 6.1292 18.9835 6.26042 18.9311 6.38242C18.8787 6.50443 18.8025 6.61477 18.707 6.70702L13.414 12L18.707 17.293C18.8892 17.4816 18.99 17.7342 18.9877 17.9964C18.9854 18.2586 18.8803 18.5094 18.6948 18.6948C18.5094 18.8802 18.2586 18.9854 17.9964 18.9877C17.7342 18.99 17.4816 18.8892 17.293 18.707L12 13.414L6.70703 18.707C6.51843 18.8892 6.26583 18.99 6.00363 18.9877C5.74143 18.9854 5.49062 18.8802 5.30521 18.6948C5.1198 18.5094 5.01463 18.2586 5.01236 17.9964C5.01008 17.7342 5.11087 17.4816 5.29303 17.293L10.586 12L5.29303 6.70702C5.10556 6.51949 5.00024 6.26518 5.00024 6.00002C5.00024 5.73486 5.10556 5.48055 5.29303 5.29302Z" fill="black"/>
</svg>
