<svg width="24" height="24" viewBox="0 0 24 24" fill="none" xmlns="http://www.w3.org/2000/svg">
<path d="M17.707 4.29296C17.6148 4.19745 17.5044 4.12127 17.3824 4.06886C17.2604 4.01645 17.1292 3.98886 16.9964 3.98771C16.8636 3.98655 16.7319 4.01186 16.609 4.06214C16.4862 4.11242 16.3745 4.18667 16.2806 4.28056C16.1867 4.37446 16.1125 4.48611 16.0622 4.60901C16.0119 4.7319 15.9866 4.86358 15.9877 4.99636C15.9889 5.12914 16.0165 5.26036 16.0689 5.38236C16.1213 5.50437 16.1975 5.61471 16.293 5.70696L17.586 6.99996H10C9.73478 6.99996 9.48043 7.10532 9.29289 7.29285C9.10536 7.48039 9 7.73474 9 7.99996C9 8.26518 9.10536 8.51953 9.29289 8.70707C9.48043 8.8946 9.73478 8.99996 10 8.99996H17.586L16.293 10.293C16.1108 10.4816 16.01 10.7342 16.0123 10.9964C16.0146 11.2586 16.1198 11.5094 16.3052 11.6948C16.4906 11.8802 16.7414 11.9854 17.0036 11.9876C17.2658 11.9899 17.5184 11.8891 17.707 11.707L20.707 8.70696C20.8945 8.51943 20.9998 8.26512 20.9998 7.99996C20.9998 7.73479 20.8945 7.48049 20.707 7.29296L17.707 4.29296ZM6.293 12.293C6.4816 12.1108 6.7342 12.01 6.9964 12.0123C7.2586 12.0146 7.50941 12.1197 7.69482 12.3051C7.88023 12.4905 7.9854 12.7414 7.98767 13.0036C7.98995 13.2658 7.88916 13.5184 7.707 13.707L6.414 15H14C14.2652 15 14.5196 15.1053 14.7071 15.2929C14.8946 15.4804 15 15.7347 15 16C15 16.2652 14.8946 16.5195 14.7071 16.7071C14.5196 16.8946 14.2652 17 14 17H6.414L7.707 18.293C7.80251 18.3852 7.87869 18.4956 7.9311 18.6176C7.98351 18.7396 8.0111 18.8708 8.01225 19.0036C8.0134 19.1363 7.9881 19.268 7.93782 19.3909C7.88754 19.5138 7.81329 19.6255 7.7194 19.7194C7.6255 19.8132 7.51385 19.8875 7.39095 19.9378C7.26806 19.9881 7.13638 20.0134 7.0036 20.0122C6.87082 20.0111 6.7396 19.9835 6.6176 19.9311C6.49559 19.8787 6.38525 19.8025 6.293 19.707L3.293 16.707C3.10553 16.5194 3.00021 16.2651 3.00021 16C3.00021 15.7348 3.10553 15.4805 3.293 15.293L6.293 12.293Z" fill="white"/>
</svg>
