<svg width="24" height="24" viewBox="0 0 24 24" fill="none" xmlns="http://www.w3.org/2000/svg">
<path d="M18.707 15.707C18.5195 15.8945 18.2651 15.9998 18 15.9998C17.7348 15.9998 17.4805 15.8945 17.293 15.707L12 10.414L6.70698 15.707C6.51838 15.8892 6.26578 15.99 6.00358 15.9877C5.74138 15.9854 5.49057 15.8803 5.30516 15.6948C5.11975 15.5094 5.01458 15.2586 5.01231 14.9964C5.01003 14.7342 5.11082 14.4816 5.29298 14.293L11.293 8.29303C11.4805 8.10556 11.7348 8.00024 12 8.00024C12.2651 8.00024 12.5195 8.10556 12.707 8.29303L18.707 14.293C18.8945 14.4806 18.9998 14.7349 18.9998 15C18.9998 15.2652 18.8945 15.5195 18.707 15.707Z" fill="black"/>
</svg>
