<svg width="24" height="24" viewBox="0 0 24 24" fill="none" xmlns="http://www.w3.org/2000/svg">
<path d="M17.7493 10.2565C17.9098 10.4206 18 10.6431 18 10.8751C18 11.1071 17.9098 11.3296 17.7493 11.4937L12.6108 16.7438C12.4502 16.9078 12.2324 17 12.0054 17C11.7783 17 11.5605 16.9078 11.3999 16.7438L6.26145 11.4937C6.17965 11.413 6.11441 11.3165 6.06953 11.2097C6.02465 11.103 6.00102 10.9881 6.00003 10.872C5.99904 10.7558 6.02071 10.6406 6.06377 10.533C6.10683 10.4255 6.17042 10.3278 6.25083 10.2456C6.33124 10.1635 6.42686 10.0985 6.53211 10.0545C6.63736 10.0105 6.75013 9.98836 6.86385 9.98937C6.97756 9.99038 7.08994 10.0145 7.19442 10.0604C7.29891 10.1062 7.3934 10.1729 7.47241 10.2565L11.1489 14.0129V3.87501C11.1489 3.64294 11.2392 3.42038 11.3998 3.25629C11.5604 3.09219 11.7782 3 12.0054 3C12.2325 3 12.4503 3.09219 12.6109 3.25629C12.7715 3.42038 12.8618 3.64294 12.8618 3.87501V14.0129L16.5383 10.2565C16.6989 10.0924 16.9167 10.0003 17.1438 10.0003C17.3709 10.0003 17.5887 10.0924 17.7493 10.2565Z" fill="black"/>
<path d="M5 19.855C5 19.6282 5.10536 19.4108 5.29289 19.2504C5.48043 19.0901 5.73478 19 6 19H18C18.2652 19 18.5196 19.0901 18.7071 19.2504C18.8946 19.4108 19 19.6282 19 19.855C19 20.0818 18.8946 20.2992 18.7071 20.4596C18.5196 20.6199 18.2652 20.71 18 20.71H6C5.73478 20.71 5.48043 20.6199 5.29289 20.4596C5.10536 20.2992 5 20.0818 5 19.855Z" fill="black"/>
</svg>
