<svg width="24" height="24" viewBox="0 0 24 24" fill="none" xmlns="http://www.w3.org/2000/svg">
<path d="M3.06998 11.936C3.57398 12.969 4.53499 14.406 5.93198 15.621C7.47198 16.96 9.49698 18 12 18C14.503 18 16.528 16.962 18.068 15.62C19.465 14.405 20.426 12.97 20.929 11.936C20.169 9.792 17.513 6 12 6C6.48798 6 3.83198 9.792 3.06998 11.936ZM1.03798 11.726C1.78498 9.11 5.01598 4 12 4C18.984 4 22.215 9.111 22.962 11.725C23.0251 11.9463 23.0099 12.1826 22.919 12.394C22.365 13.687 21.179 15.564 19.382 17.129C17.572 18.705 15.097 20 12 20C8.90298 20 6.42799 18.705 4.61799 17.13C2.81999 15.564 1.63498 13.687 1.08098 12.394C0.990105 12.1826 0.974917 11.9463 1.03798 11.725V11.726Z" fill="black"/>
<path d="M12 10C11.4696 10 10.9609 10.2107 10.5858 10.5858C10.2107 10.9609 10 11.4696 10 12C10 12.5304 10.2107 13.0391 10.5858 13.4142C10.9609 13.7893 11.4696 14 12 14C12.5304 14 13.0391 13.7893 13.4142 13.4142C13.7893 13.0391 14 12.5304 14 12C14 11.4696 13.7893 10.9609 13.4142 10.5858C13.0391 10.2107 12.5304 10 12 10ZM8 12C8 10.9391 8.42143 9.92172 9.17157 9.17157C9.92172 8.42143 10.9391 8 12 8C13.0609 8 14.0783 8.42143 14.8284 9.17157C15.5786 9.92172 16 10.9391 16 12C16 13.0609 15.5786 14.0783 14.8284 14.8284C14.0783 15.5786 13.0609 16 12 16C10.9391 16 9.92172 15.5786 9.17157 14.8284C8.42143 14.0783 8 13.0609 8 12Z" fill="black"/>
</svg>
