<svg width="24" height="24" viewBox="0 0 24 24" fill="none" xmlns="http://www.w3.org/2000/svg">
<path d="M5 6C4.73478 6 4.48043 6.10536 4.29289 6.29289C4.10536 6.48043 4 6.73478 4 7V8.996C4.003 9.006 4.015 9.033 4.054 9.078C4.124 9.16 4.247 9.254 4.406 9.332C5.243 9.742 6 10.596 6 12C6 13.404 5.243 14.257 4.406 14.668C4.27348 14.7293 4.15398 14.8156 4.054 14.922C4.03105 14.9457 4.01274 14.9735 4 15.004V17C4 17.2652 4.10536 17.5196 4.29289 17.7071C4.48043 17.8946 4.73478 18 5 18H14V16C14 15.7348 14.1054 15.4804 14.2929 15.2929C14.4804 15.1054 14.7348 15 15 15C15.2652 15 15.5196 15.1054 15.7071 15.2929C15.8946 15.4804 16 15.7348 16 16V18H19C19.2652 18 19.5196 17.8946 19.7071 17.7071C19.8946 17.5196 20 17.2652 20 17V15.004C19.9873 14.9735 19.969 14.9457 19.946 14.922C19.846 14.8156 19.7265 14.7293 19.594 14.668C18.758 14.258 18 13.404 18 12C18 10.596 18.757 9.743 19.595 9.332C19.753 9.254 19.875 9.16 19.946 9.078C19.9689 9.05425 19.9872 9.02645 20 8.996V7C20 6.73478 19.8946 6.48043 19.7071 6.29289C19.5196 6.10536 19.2652 6 19 6H16V8C16 8.26522 15.8946 8.51957 15.7071 8.70711C15.5196 8.89464 15.2652 9 15 9C14.7348 9 14.4804 8.89464 14.2929 8.70711C14.1054 8.51957 14 8.26522 14 8V6H5ZM2 7C2 6.20435 2.31607 5.44129 2.87868 4.87868C3.44129 4.31607 4.20435 4 5 4H19C19.7956 4 20.5587 4.31607 21.1213 4.87868C21.6839 5.44129 22 6.20435 22 7V9C22 10.145 21.07 10.835 20.476 11.127C20.344 11.1877 20.2308 11.2826 20.148 11.402C20.076 11.51 20 11.69 20 12C20 12.31 20.076 12.49 20.148 12.598C20.2308 12.7174 20.344 12.8123 20.476 12.873C21.07 13.165 22 13.855 22 15V17C22 17.7956 21.6839 18.5587 21.1213 19.1213C20.5587 19.6839 19.7956 20 19 20H5C4.20435 20 3.44129 19.6839 2.87868 19.1213C2.31607 18.5587 2 17.7956 2 17V15C2 13.855 2.93 13.165 3.524 12.873C3.65596 12.8123 3.76923 12.7174 3.852 12.598C3.924 12.49 4 12.31 4 12C4 11.69 3.924 11.51 3.852 11.402C3.76923 11.2826 3.65596 11.1877 3.524 11.127C2.93 10.835 2 10.145 2 9V7ZM15 10C15.2652 10 15.5196 10.1054 15.7071 10.2929C15.8946 10.4804 16 10.7348 16 11V13C16 13.2652 15.8946 13.5196 15.7071 13.7071C15.5196 13.8946 15.2652 14 15 14C14.7348 14 14.4804 13.8946 14.2929 13.7071C14.1054 13.5196 14 13.2652 14 13V11C14 10.7348 14.1054 10.4804 14.2929 10.2929C14.4804 10.1054 14.7348 10 15 10Z" fill="black"/>
</svg>
