<svg width="24" height="24" viewBox="0 0 24 24" fill="none" xmlns="http://www.w3.org/2000/svg">
<path d="M2.10197 3.56C2.18429 3.392 2.31208 3.25046 2.47082 3.15147C2.62957 3.05248 2.81289 3 2.99997 3H21C21.1872 2.99987 21.3708 3.05233 21.5297 3.1514C21.6886 3.25047 21.8165 3.39217 21.8988 3.56037C21.9812 3.72857 22.0146 3.91651 21.9954 4.10278C21.9761 4.28906 21.905 4.46619 21.79 4.614L15 13.344V20C15 20.1857 14.9483 20.3678 14.8506 20.5257C14.753 20.6837 14.6133 20.8114 14.4472 20.8944C14.2811 20.9775 14.0951 21.0126 13.9102 20.996C13.7252 20.9793 13.5485 20.9114 13.4 20.8L9.39997 17.8C9.27578 17.7069 9.17497 17.5861 9.10555 17.4472C9.03612 17.3084 8.99997 17.1552 8.99997 17V13.343L2.20997 4.613C2.09545 4.46527 2.02462 4.28839 2.00553 4.10244C1.98644 3.9165 2.01986 3.72892 2.10197 3.561V3.56ZM5.04498 5L10.789 12.386C10.9256 12.5615 10.9999 12.7776 11 13V16.5L13 18V13C12.9998 12.7777 13.0737 12.5616 13.21 12.386L18.956 5H5.04498Z" fill="black"/>
</svg>
