<svg width="24" height="24" viewBox="0 0 24 24" fill="none" xmlns="http://www.w3.org/2000/svg">
<path d="M10.383 4.07599C10.5657 4.15174 10.7218 4.27995 10.8316 4.44442C10.9415 4.60889 11 4.80223 11 4.99999V8.02799C15.117 8.25799 17.861 9.91299 19.58 12.063C21.403 14.339 22 17.075 22 19C22 19.2652 21.8946 19.5196 21.7071 19.7071C21.5196 19.8946 21.2652 20 21 20C20.7348 20 20.4804 19.8946 20.2929 19.7071C20.1054 19.5196 20 19.2652 20 19C20 18.498 19.765 18.058 19.198 17.634C18.606 17.191 17.721 16.829 16.633 16.558C14.829 16.108 12.692 15.964 11 15.975V19C11 19.1977 10.9413 19.391 10.8314 19.5555C10.7215 19.7199 10.5654 19.848 10.3827 19.9237C10.2 19.9993 9.99892 20.0191 9.80497 19.9806C9.61102 19.942 9.43285 19.8468 9.293 19.707L2.293 12.707C2.10553 12.5195 2.00021 12.2652 2.00021 12C2.00021 11.7348 2.10553 11.4805 2.293 11.293L9.293 4.29299C9.43285 4.15306 9.61105 4.05775 9.80508 4.01912C9.9991 3.9805 10.2002 4.00029 10.383 4.07599ZM19.226 15.343C18.9171 14.615 18.5111 13.9321 18.019 13.313C16.574 11.505 14.122 9.99999 10 9.99999C9.73478 9.99999 9.48043 9.89464 9.29289 9.7071C9.10536 9.51956 9 9.26521 9 8.99999V7.41399L4.414 12L9 16.586V15C9 14.7426 9.09927 14.4951 9.27715 14.309C9.45504 14.1229 9.69783 14.0126 9.955 14.001C11.843 13.915 14.698 14.015 17.117 14.617C17.842 14.7906 18.5486 15.0338 19.227 15.343H19.226Z" fill="white"/>
</svg>
