<svg width="24" height="24" viewBox="0 0 24 24" fill="none" xmlns="http://www.w3.org/2000/svg">
<path d="M12 6C9.93699 6 8.29498 6.525 7.00498 7.28C6.89159 7.34632 6.76624 7.38965 6.6361 7.40753C6.50595 7.4254 6.37356 7.41747 6.24649 7.38418C6.11941 7.35089 6.00013 7.29289 5.89547 7.21351C5.79081 7.13412 5.7028 7.0349 5.63648 6.9215C5.57017 6.8081 5.52683 6.68275 5.50896 6.55261C5.49109 6.42247 5.49902 6.29008 5.53231 6.163C5.5656 6.03592 5.62359 5.91665 5.70298 5.81199C5.78236 5.70732 5.88159 5.61932 5.99498 5.553C7.58998 4.62 9.57998 4 12 4C18.984 4 22.215 9.111 22.962 11.725C23.0251 11.9463 23.0099 12.1826 22.919 12.394C22.245 13.968 20.616 16.444 18.052 18.144C17.8308 18.2904 17.5605 18.3429 17.3006 18.2901C17.0407 18.2372 16.8124 18.0832 16.666 17.862C16.5196 17.6408 16.4671 17.3705 16.5199 17.1106C16.5728 16.8507 16.7268 16.6224 16.948 16.476C18.95 15.15 20.296 13.236 20.93 11.936C20.168 9.792 17.512 6 12 6ZM4.65998 7.736C4.85896 7.9109 4.9804 8.15761 4.99765 8.42197C5.0149 8.68633 4.92655 8.94672 4.75198 9.146C3.88998 10.13 3.34899 11.158 3.07099 11.936C3.57399 12.97 4.53598 14.406 5.93098 15.621C7.47198 16.96 9.49798 18 12 18C12.631 18 13.23 17.934 13.795 17.816C14.0519 17.7682 14.3173 17.8229 14.5344 17.9683C14.7514 18.1137 14.903 18.3383 14.9566 18.5941C15.0102 18.8498 14.9615 19.1164 14.821 19.3367C14.6806 19.557 14.4594 19.7136 14.205 19.773C13.4798 19.9247 12.7409 20.0007 12 20C8.90298 20 6.42799 18.705 4.61799 17.13C2.81999 15.564 1.63498 13.687 1.08098 12.394C0.990105 12.1826 0.974917 11.9463 1.03798 11.725C1.34798 10.639 2.06098 9.183 3.24798 7.828C3.42292 7.62873 3.66983 7.50709 3.93444 7.48984C4.19904 7.47258 4.45966 7.56113 4.65898 7.736H4.65998Z" fill="black"/>
<path d="M12 10.0001C11.4739 9.9988 10.9688 10.2059 10.595 10.5761C10.4052 10.7573 10.1517 10.8567 9.88929 10.8528C9.62685 10.8489 9.37648 10.7419 9.19221 10.555C9.00793 10.3681 8.90452 10.1162 8.9043 9.85377C8.90407 9.59131 9.00704 9.33927 9.19099 9.15205C9.94288 8.40361 10.9613 7.98451 12.0222 7.98695C13.0831 7.98939 14.0996 8.41316 14.848 9.16505C15.5964 9.91694 16.0155 10.9354 16.0131 11.9962C16.0107 13.0571 15.5869 14.0736 14.835 14.8221C14.6479 15.0101 14.3937 15.1161 14.1285 15.1168C13.8632 15.1174 13.6085 15.0127 13.4205 14.8256C13.2325 14.6384 13.1264 14.3843 13.1258 14.119C13.1251 13.8538 13.2299 13.5991 13.417 13.4111C13.6958 13.131 13.8853 12.7747 13.9618 12.387C14.0382 11.9993 13.9981 11.5977 13.8465 11.2328C13.695 10.8679 13.4387 10.5561 13.11 10.3367C12.7814 10.1173 12.3951 10.0001 12 10.0001Z" fill="black"/>
<path d="M2.293 2.29303C2.48053 2.10556 2.73484 2.00024 3 2.00024C3.26516 2.00024 3.51947 2.10556 3.707 2.29303L21.707 20.293C21.8892 20.4816 21.99 20.7342 21.9877 20.9964C21.9854 21.2586 21.8802 21.5094 21.6948 21.6948C21.5094 21.8803 21.2586 21.9854 20.9964 21.9877C20.7342 21.99 20.4816 21.8892 20.293 21.707L2.293 3.70703C2.10553 3.5195 2.00021 3.26519 2.00021 3.00003C2.00021 2.73487 2.10553 2.48056 2.293 2.29303Z" fill="black"/>
</svg>
