<svg width="22" height="20" viewBox="0 0 22 20" fill="none" xmlns="http://www.w3.org/2000/svg">
<path d="M9.84633 15.4395L9.84628 15.4395L9.83491 15.4462C9.62493 15.5712 9.4187 15.6945 9.21768 15.815C8.96537 15.9663 8.71833 16.115 8.48164 16.2575L5.40745 18.108L4.54599 16.6146L2.94243 13.8346L1.0762 10.5992V10.1142C1.0762 10.0872 1.07673 10.0603 1.07778 10.0336L1.129 9.74734C1.14038 9.68368 1.15483 9.6206 1.17227 9.55834L1.23757 9.32522C1.27135 9.24666 1.31007 9.17061 1.35338 9.09748C1.37605 9.05919 1.39442 9.03439 1.40657 9.01975L1.43354 8.98727L1.45768 8.95263C1.61946 8.72044 1.83381 8.51856 2.09808 8.36598L14.2224 1.36598C15.179 0.8137 16.4022 1.14145 16.9545 2.09803L19.9545 7.29419C20.4582 8.16657 20.2298 9.26246 19.4593 9.86631L19.0762 10.1666V10.1897L17.6087 10.9656C17.5523 10.9955 17.4945 11.0264 17.4353 11.0585L17.4233 11.065L17.4114 11.0718L16.1973 11.7728L16.1878 11.7783L16.1785 11.784C16.1304 11.8131 16.0818 11.8427 16.0326 11.8729L16.0202 11.8805L16.0076 11.8877C16.0076 11.8877 16.0076 11.8877 16.0076 11.8877C15.155 12.3766 14.9142 12.5251 14.7095 12.6517C14.6681 12.6773 14.6312 12.7001 14.5909 12.7246C14.328 12.8849 13.9667 13.0935 12.5583 13.874L12.5506 13.8782L12.543 13.8826L9.84633 15.4395Z" stroke="white" stroke-width="2"/>
</svg>
