<svg width="24" height="24" viewBox="0 0 24 24" fill="none" xmlns="http://www.w3.org/2000/svg">
<path d="M5.29303 8.29302C5.48056 8.10555 5.73487 8.00023 6.00003 8.00023C6.26519 8.00023 6.5195 8.10555 6.70703 8.29302L12 13.586L17.293 8.29302C17.3853 8.19751 17.4956 8.12133 17.6176 8.06892C17.7396 8.01651 17.8709 7.98892 18.0036 7.98777C18.1364 7.98662 18.2681 8.01192 18.391 8.0622C18.5139 8.11248 18.6255 8.18673 18.7194 8.28063C18.8133 8.37452 18.8876 8.48617 18.9379 8.60907C18.9881 8.73196 19.0134 8.86364 19.0123 8.99642C19.0111 9.1292 18.9835 9.26042 18.9311 9.38242C18.8787 9.50443 18.8025 9.61477 18.707 9.70702L12.707 15.707C12.5195 15.8945 12.2652 15.9998 12 15.9998C11.7349 15.9998 11.4806 15.8945 11.293 15.707L5.29303 9.70702C5.10556 9.51949 5.00024 9.26518 5.00024 9.00002C5.00024 8.73486 5.10556 8.48055 5.29303 8.29302Z" fill="black"/>
</svg>
