<svg width="24" height="24" viewBox="0 0 24 24" fill="none" xmlns="http://www.w3.org/2000/svg">
<path d="M15.707 5.29303C15.8945 5.48056 15.9998 5.73487 15.9998 6.00003C15.9998 6.26519 15.8945 6.5195 15.707 6.70703L10.414 12L15.707 17.293C15.8892 17.4816 15.99 17.7342 15.9877 17.9964C15.9854 18.2586 15.8803 18.5094 15.6948 18.6948C15.5094 18.8803 15.2586 18.9854 14.9964 18.9877C14.7342 18.99 14.4816 18.8892 14.293 18.707L8.29303 12.707C8.10556 12.5195 8.00024 12.2652 8.00024 12C8.00024 11.7349 8.10556 11.4806 8.29303 11.293L14.293 5.29303C14.4806 5.10556 14.7349 5.00024 15 5.00024C15.2652 5.00024 15.5195 5.10556 15.707 5.29303Z" fill="black"/>
</svg>
