<svg width="24" height="24" viewBox="0 0 24 24" fill="none" xmlns="http://www.w3.org/2000/svg">
<path d="M12 3C12.2652 3 12.5196 3.10536 12.7071 3.29289C12.8946 3.48043 13 3.73478 13 4V11.586L14.293 10.293C14.3852 10.1975 14.4956 10.1213 14.6176 10.0689C14.7396 10.0165 14.8708 9.9889 15.0036 9.98775C15.1364 9.9866 15.2681 10.0119 15.391 10.0622C15.5139 10.1125 15.6255 10.1867 15.7194 10.2806C15.8133 10.3745 15.8875 10.4861 15.9378 10.609C15.9881 10.7319 16.0134 10.8636 16.0123 10.9964C16.0111 11.1292 15.9835 11.2604 15.9311 11.3824C15.8787 11.5044 15.8025 11.6148 15.707 11.707L12.707 14.707C12.5195 14.8945 12.2652 14.9998 12 14.9998C11.7348 14.9998 11.4805 14.8945 11.293 14.707L8.293 11.707C8.19749 11.6148 8.12131 11.5044 8.0689 11.3824C8.01649 11.2604 7.9889 11.1292 7.98775 10.9964C7.9866 10.8636 8.0119 10.7319 8.06218 10.609C8.11246 10.4861 8.18671 10.3745 8.28061 10.2806C8.3745 10.1867 8.48615 10.1125 8.60905 10.0622C8.73194 10.0119 8.86362 9.9866 8.9964 9.98775C9.12918 9.9889 9.2604 10.0165 9.3824 10.0689C9.50441 10.1213 9.61475 10.1975 9.707 10.293L11 11.586V4C11 3.73478 11.1054 3.48043 11.2929 3.29289C11.4804 3.10536 11.7348 3 12 3ZM5 8C4.73478 8 4.48043 8.10536 4.29289 8.29289C4.10536 8.48043 4 8.73478 4 9V18C4 18.2652 4.10536 18.5196 4.29289 18.7071C4.48043 18.8946 4.73478 19 5 19H19C19.2652 19 19.5196 18.8946 19.7071 18.7071C19.8946 18.5196 20 18.2652 20 18V9C20 8.73478 19.8946 8.48043 19.7071 8.29289C19.5196 8.10536 19.2652 8 19 8H17C16.7348 8 16.4804 7.89464 16.2929 7.70711C16.1054 7.51957 16 7.26522 16 7C16 6.73478 16.1054 6.48043 16.2929 6.29289C16.4804 6.10536 16.7348 6 17 6H19C19.7956 6 20.5587 6.31607 21.1213 6.87868C21.6839 7.44129 22 8.20435 22 9V18C22 18.7956 21.6839 19.5587 21.1213 20.1213C20.5587 20.6839 19.7956 21 19 21H5C4.20435 21 3.44129 20.6839 2.87868 20.1213C2.31607 19.5587 2 18.7956 2 18V9C2 8.20435 2.31607 7.44129 2.87868 6.87868C3.44129 6.31607 4.20435 6 5 6H7C7.26522 6 7.51957 6.10536 7.70711 6.29289C7.89464 6.48043 8 6.73478 8 7C8 7.26522 7.89464 7.51957 7.70711 7.70711C7.51957 7.89464 7.26522 8 7 8H5Z" fill="white"/>
</svg>
