<svg width="24" height="24" viewBox="0 0 24 24" fill="none" xmlns="http://www.w3.org/2000/svg">
<path d="M10.698 2.79898C11.0605 2.48806 11.5224 2.31714 12 2.31714C12.4776 2.31714 12.9394 2.48806 13.302 2.79898L19.638 8.22898L22.125 10.219C22.2276 10.3011 22.3129 10.4025 22.3763 10.5176C22.4396 10.6327 22.4797 10.7591 22.4942 10.8897C22.5087 11.0202 22.4973 11.1524 22.4607 11.2785C22.4241 11.4047 22.3631 11.5224 22.281 11.625C22.1989 11.7275 22.0974 11.8129 21.9824 11.8763C21.8673 11.9396 21.7409 11.9797 21.6103 11.9942C21.4797 12.0087 21.3476 11.9973 21.2214 11.9607C21.0953 11.9241 20.9776 11.8631 20.875 11.781L20 11.081V19C20 19.5304 19.7893 20.0391 19.4142 20.4142C19.0391 20.7893 18.5304 21 18 21H5.99999C5.46956 21 4.96085 20.7893 4.58578 20.4142C4.2107 20.0391 3.99999 19.5304 3.99999 19V11.08L3.12499 11.78C2.91786 11.9457 2.65336 12.0224 2.38968 11.9932C2.12601 11.9639 1.88475 11.8311 1.71899 11.624C1.55323 11.4168 1.47654 11.1523 1.5058 10.8887C1.53505 10.625 1.66786 10.3837 1.87499 10.218L4.36199 8.22798L10.698 2.79798V2.79898ZM5.99999 9.45998V19H8.99999V15C8.99999 14.4696 9.21071 13.9608 9.58578 13.5858C9.96085 13.2107 10.4696 13 11 13H13C13.5304 13 14.0391 13.2107 14.4142 13.5858C14.7893 13.9608 15 14.4696 15 15V19H18V9.45998L12 4.31698L5.99999 9.45998ZM13 19V15H11V19H13Z" fill="white"/>
</svg>
