<svg width="24" height="24" viewBox="0 0 24 24" fill="none" xmlns="http://www.w3.org/2000/svg">
<path d="M11 5.00002C10.2121 5.00002 9.43185 5.15521 8.7039 5.45674C7.97595 5.75827 7.31451 6.20022 6.75736 6.75738C6.20021 7.31453 5.75825 7.97596 5.45672 8.70392C5.15519 9.43187 5 10.2121 5 11C5 11.7879 5.15519 12.5682 5.45672 13.2961C5.75825 14.0241 6.20021 14.6855 6.75736 15.2427C7.31451 15.7998 7.97595 16.2418 8.7039 16.5433C9.43185 16.8448 10.2121 17 11 17C12.5913 17 14.1174 16.3679 15.2426 15.2427C16.3679 14.1174 17 12.5913 17 11C17 9.40872 16.3679 7.88259 15.2426 6.75738C14.1174 5.63216 12.5913 5.00002 11 5.00002ZM3 11C3.00018 9.72688 3.30422 8.47216 3.88684 7.34016C4.46946 6.20815 5.31384 5.23154 6.3498 4.4915C7.38577 3.75146 8.5834 3.26935 9.84315 3.08525C11.1029 2.90114 12.3884 3.02036 13.5928 3.43299C14.7973 3.84562 15.8858 4.53975 16.768 5.45768C17.6502 6.37562 18.3006 7.49085 18.6651 8.71069C19.0296 9.93054 19.0977 11.2198 18.8638 12.4712C18.6298 13.7227 18.1006 14.9002 17.32 15.906L20.707 19.293C20.8892 19.4816 20.99 19.7342 20.9877 19.9964C20.9854 20.2586 20.8802 20.5094 20.6948 20.6948C20.5094 20.8802 20.2586 20.9854 19.9964 20.9877C19.7342 20.99 19.4816 20.8892 19.293 20.707L15.906 17.32C14.7235 18.2381 13.307 18.806 11.8178 18.959C10.3285 19.112 8.82619 18.8441 7.48165 18.1857C6.1371 17.5273 5.00429 16.5048 4.21202 15.2345C3.41976 13.9642 2.99983 12.4971 3 11Z" fill="black"/>
</svg>
