<svg width="24" height="24" viewBox="0 0 24 24" fill="none" xmlns="http://www.w3.org/2000/svg">
<path d="M1 4C1 3.73478 1.10536 3.48043 1.29289 3.29289C1.48043 3.10536 1.73478 3 2 3H4.5C4.72293 3.00001 4.93946 3.0745 5.11521 3.21166C5.29095 3.34881 5.41583 3.54075 5.47 3.757L5.78 5H20C20.1479 5.00009 20.2939 5.03298 20.4276 5.0963C20.5612 5.15963 20.6792 5.25181 20.7729 5.3662C20.8666 5.48059 20.9338 5.61435 20.9696 5.75784C21.0054 5.90133 21.009 6.05098 20.98 6.196L18.98 16.196C18.9347 16.4226 18.8123 16.6265 18.6337 16.7731C18.455 16.9197 18.2311 16.9999 18 17H7C6.76891 16.9999 6.545 16.9197 6.36634 16.7731C6.18768 16.6265 6.06529 16.4226 6.02 16.196L4.023 6.22L3.72 5H2C1.73478 5 1.48043 4.89464 1.29289 4.70711C1.10536 4.51957 1 4.26522 1 4ZM6.22 7L7.82 15H17.18L18.78 7H6.22ZM14 20C14 19.4696 14.2107 18.9609 14.5858 18.5858C14.9609 18.2107 15.4696 18 16 18C16.5304 18 17.0391 18.2107 17.4142 18.5858C17.7893 18.9609 18 19.4696 18 20C18 20.5304 17.7893 21.0391 17.4142 21.4142C17.0391 21.7893 16.5304 22 16 22C15.4696 22 14.9609 21.7893 14.5858 21.4142C14.2107 21.0391 14 20.5304 14 20ZM7 20C7 19.4696 7.21071 18.9609 7.58579 18.5858C7.96086 18.2107 8.46957 18 9 18C9.53043 18 10.0391 18.2107 10.4142 18.5858C10.7893 18.9609 11 19.4696 11 20C11 20.5304 10.7893 21.0391 10.4142 21.4142C10.0391 21.7893 9.53043 22 9 22C8.46957 22 7.96086 21.7893 7.58579 21.4142C7.21071 21.0391 7 20.5304 7 20Z" fill="black"/>
</svg>
