<svg width="12" height="8" viewBox="0 0 12 8" fill="none" xmlns="http://www.w3.org/2000/svg">
<path d="M3.29279 0.280712C3.48139 0.0985537 3.73399 -0.00224062 3.99619 3.78026e-05C4.25838 0.00231622 4.5092 0.107485 4.6946 0.292893C4.88001 0.478301 4.98518 0.729114 4.98746 0.991311C4.98974 1.25351 4.88894 1.50611 4.70679 1.69471L3.41379 2.98771H10.9998C11.265 2.98771 11.5194 3.09307 11.7069 3.28061C11.8944 3.46814 11.9998 3.7225 11.9998 3.98771C11.9998 4.25293 11.8944 4.50728 11.7069 4.69482C11.5194 4.88236 11.265 4.98771 10.9998 4.98771H3.41379L4.70679 6.28071C4.8023 6.37296 4.87848 6.4833 4.93089 6.60531C4.9833 6.72731 5.01088 6.85853 5.01204 6.99131C5.01319 7.12409 4.98789 7.25577 4.93761 7.37866C4.88733 7.50156 4.81307 7.61321 4.71918 7.70711C4.62529 7.801 4.51364 7.87525 4.39074 7.92553C4.26784 7.97581 4.13616 8.00112 4.00339 7.99996C3.87061 7.99881 3.73939 7.97122 3.61738 7.91881C3.49538 7.8664 3.38503 7.79022 3.29279 7.69471L0.292786 4.69471C0.105315 4.50718 0 4.25288 0 3.98771C0 3.72255 0.105315 3.46824 0.292786 3.28071L3.29279 0.280712Z" fill="black"/>
</svg>
